<svg width="20" height="21" viewBox="0 0 20 21" fill="none" xmlns="http://www.w3.org/2000/svg">
<path d="M13.2475 14.6908L14.9275 13.0108C15.1538 12.7874 15.44 12.6344 15.7516 12.5705C16.0631 12.5066 16.3865 12.5345 16.6825 12.6508L18.73 13.4683C19.0291 13.5898 19.2856 13.797 19.4671 14.0639C19.6486 14.3309 19.747 14.6455 19.75 14.9683V18.7183C19.7482 18.9379 19.7021 19.1549 19.6143 19.3562C19.5265 19.5574 19.3989 19.7389 19.2391 19.8895C19.0793 20.0402 18.8907 20.1569 18.6847 20.2328C18.4786 20.3086 18.2593 20.342 18.04 20.3308C3.69248 19.4383 0.797478 7.28834 0.249978 2.63834C0.224563 2.40999 0.247784 2.17885 0.318114 1.96012C0.388445 1.74139 0.50429 1.54004 0.658029 1.36929C0.811768 1.19855 0.999916 1.06229 1.2101 0.969489C1.42028 0.876683 1.64772 0.829431 1.87748 0.830841H5.49998C5.82324 0.831798 6.13881 0.929442 6.40612 1.11121C6.67344 1.29298 6.88025 1.55057 6.99998 1.85084L7.81748 3.89834C7.93767 4.19314 7.96833 4.51682 7.90564 4.82895C7.84295 5.14108 7.68968 5.42781 7.46498 5.65334L5.78498 7.33334C5.78498 7.33334 6.75248 13.8808 13.2475 14.6908Z" fill="#696969"/>
</svg>
