<svg width="25" height="25" viewBox="0 0 25 25" fill="none" xmlns="http://www.w3.org/2000/svg">
<path d="M12.5 2.08081C10.3128 2.08339 8.21584 2.95341 6.66922 4.50003C5.12261 6.04665 4.25259 8.14357 4.25001 10.3308C4.24799 12.1181 4.83179 13.8569 5.91201 15.2808C5.91201 15.2808 6.13701 15.5771 6.17376 15.6198L12.5 23.0808L18.8293 15.6161C18.8623 15.5763 19.088 15.2808 19.088 15.2808L19.0888 15.2786C20.1682 13.8551 20.7517 12.1173 20.75 10.3308C20.7474 8.14357 19.8774 6.04665 18.3308 4.50003C16.7842 2.95341 14.6872 2.08339 12.5 2.08081ZM12.5 13.3308C11.9067 13.3308 11.3266 13.1549 10.8333 12.8252C10.3399 12.4956 9.95543 12.027 9.72837 11.4789C9.5013 10.9307 9.44189 10.3275 9.55765 9.74554C9.6734 9.1636 9.95913 8.62905 10.3787 8.20949C10.7982 7.78993 11.3328 7.50421 11.9147 7.38845C12.4967 7.2727 13.0999 7.33211 13.6481 7.55917C14.1962 7.78623 14.6648 8.17075 14.9944 8.6641C15.3241 9.15745 15.5 9.73747 15.5 10.3308C15.499 11.1262 15.1826 11.8886 14.6202 12.451C14.0578 13.0134 13.2953 13.3298 12.5 13.3308Z" fill="#696969"/>
</svg>
