<svg width="20" height="17" viewBox="0 0 20 17" fill="none" xmlns="http://www.w3.org/2000/svg">
<path d="M18 4.58081L10 9.58081L2 4.58081V2.58081L10 7.58081L18 2.58081M18 0.580811H2C0.89 0.580811 0 1.47081 0 2.58081V14.5808C0 15.1112 0.210714 15.62 0.585786 15.995C0.960859 16.3701 1.46957 16.5808 2 16.5808H18C18.5304 16.5808 19.0391 16.3701 19.4142 15.995C19.7893 15.62 20 15.1112 20 14.5808V2.58081C20 2.05038 19.7893 1.54167 19.4142 1.1666C19.0391 0.791524 18.5304 0.580811 18 0.580811Z" fill="#696969"/>
</svg>
