<svg width="53" height="53" viewBox="0 0 53 53" fill="none" xmlns="http://www.w3.org/2000/svg">
<path d="M11.1665 24.0747L5.74985 20.9872C5.42485 20.8066 5.16269 20.5444 4.96335 20.2007C4.76402 19.8569 4.66508 19.4878 4.66652 19.0935V12.9185C4.66652 12.5213 4.76619 12.1508 4.96552 11.807C5.16485 11.4632 5.4263 11.2011 5.74985 11.0205L11.1665 7.933C11.4915 7.75245 11.8526 7.66217 12.2499 7.66217C12.6471 7.66217 13.0082 7.75245 13.3332 7.933L18.7499 11.0205C19.0749 11.2011 19.337 11.4632 19.5364 11.807C19.7357 12.1508 19.8346 12.5206 19.8332 12.9163V19.0913C19.8332 19.4886 19.7342 19.8591 19.5364 20.2028C19.3385 20.5466 19.0763 20.8081 18.7499 20.9872L13.3332 24.0747C13.0082 24.2552 12.6471 24.3455 12.2499 24.3455C11.8526 24.3455 11.4915 24.2552 11.1665 24.0747ZM36.0832 29.0038V21.3122L41.4999 24.508C42.186 24.9052 42.719 25.4288 43.0989 26.0788C43.4787 26.7288 43.668 27.4511 43.6665 28.2455V38.4288C43.6665 39.2233 43.4773 39.9455 43.0989 40.5955C42.7204 41.2455 42.1874 41.7691 41.4999 42.1663L32.8332 47.2038C32.1471 47.6011 31.4249 47.7997 30.6665 47.7997C29.9082 47.7997 29.186 47.6011 28.4999 47.2038L19.8332 42.1663C19.1471 41.7691 18.6148 41.2455 18.2364 40.5955C17.8579 39.9455 17.668 39.2233 17.6665 38.4288V28.2455C17.6665 27.4511 17.8565 26.7288 18.2364 26.0788C18.6162 25.4288 19.1485 24.9052 19.8332 24.508L25.2499 21.3122V29.0038C25.2499 30.5205 25.7735 31.8024 26.8207 32.8497C27.8679 33.8969 29.1499 34.4205 30.6665 34.4205C32.1832 34.4205 33.4651 33.8969 34.5124 32.8497C35.5596 31.8024 36.0832 30.5205 36.0832 29.0038ZM32.8332 18.1705V29.0038C32.8332 29.6177 32.6252 30.1327 32.2092 30.5487C31.7932 30.9647 31.279 31.1719 30.6665 31.1705C30.0541 31.1691 29.5399 30.9611 29.1239 30.5465C28.7079 30.1319 28.4999 29.6177 28.4999 29.0038V7.33717C28.4999 6.72328 28.7079 6.20906 29.1239 5.7945C29.5399 5.37995 30.0541 5.17195 30.6665 5.1705H43.9374C44.804 5.1705 45.454 5.54967 45.8874 6.308C46.3207 7.06634 46.2846 7.80661 45.779 8.52884L44.479 10.4788C44.2262 10.8399 44.0999 11.2372 44.0999 11.6705C44.0999 12.1038 44.2262 12.5011 44.479 12.8622L45.779 14.8122C46.2846 15.5344 46.3207 16.2747 45.8874 17.033C45.454 17.7913 44.804 18.1705 43.9374 18.1705H32.8332Z" fill="url(#paint0_linear_10_5701)"/>
<defs>
<linearGradient id="paint0_linear_10_5701" x1="25.4269" y1="5.1705" x2="25.4269" y2="47.7997" gradientUnits="userSpaceOnUse">
<stop stop-color="#FDA533"/>
<stop offset="1" stop-color="#FFE8AE"/>
</linearGradient>
</defs>
</svg>
