<svg width="52" height="53" viewBox="0 0 52 53" fill="none" xmlns="http://www.w3.org/2000/svg">
<g clip-path="url(#clip0_10_5707)">
<path d="M27.8572 50.9763V31.4763C27.8572 30.2449 28.3463 29.064 29.217 28.1933C30.0877 27.3226 31.2687 26.8334 32.5 26.8334C33.7314 26.8334 34.9123 27.3226 35.783 28.1933C36.6537 29.064 37.1429 30.2449 37.1429 31.4763V41.6906H44.5715C46.5416 41.6906 48.4311 42.4732 49.8243 43.8664C51.2174 45.2595 52 47.149 52 49.1191V50.9763" fill="black"/>
<path fill-rule="evenodd" clip-rule="evenodd" d="M0.115236 17.2692C0.119421 14.9036 0.634411 12.5669 1.62499 10.4188C2.61557 8.27064 4.05838 6.36176 5.85475 4.82268C7.65111 3.28359 9.75868 2.1506 12.0333 1.50117C14.308 0.851743 16.696 0.701202 19.0342 1.05984C21.3724 1.41848 23.6055 2.27784 25.581 3.57915C27.5564 4.88047 29.2275 6.59305 30.48 8.59978C31.7325 10.6065 32.5368 12.8601 32.8381 15.2063C33.1393 17.5526 32.9302 19.9363 32.2252 22.1943C29.8111 22.2658 27.5198 23.2751 25.8375 25.008C24.1552 26.7409 23.2143 29.0611 23.2144 31.4763V32.2897C20.7126 33.4014 17.9726 33.8702 15.2436 33.6536C12.5145 33.4369 9.88282 32.5417 7.58773 31.0493C5.29263 29.5569 3.40689 27.5146 2.10188 25.108C0.796866 22.7014 0.113964 20.0068 0.115236 17.2692ZM16.5435 5.2423C17.8287 5.2423 18.865 6.2823 18.865 7.56373V8.61487C19.7781 8.82409 20.6236 9.26065 21.323 9.88402C22.0223 10.5074 22.5528 11.2974 22.8652 12.1806C22.9669 12.4681 23.011 12.7729 22.9949 13.0774C22.9788 13.382 22.9029 13.6804 22.7715 13.9557C22.6401 14.2309 22.4558 14.4776 22.2291 14.6816C22.0023 14.8855 21.7376 15.0429 21.4501 15.1446C21.1626 15.2463 20.8578 15.2904 20.5532 15.2743C20.2487 15.2582 19.9502 15.1823 19.675 15.0509C19.3998 14.9195 19.1531 14.7351 18.9491 14.5084C18.7451 14.2817 18.5878 14.017 18.4861 13.7294C18.4231 13.5513 18.3064 13.397 18.1521 13.2879C17.9977 13.1788 17.8134 13.1202 17.6244 13.1203H15.1172C14.9786 13.1227 14.8456 13.1757 14.7434 13.2693C14.6411 13.363 14.5766 13.4907 14.562 13.6286C14.5474 13.7665 14.5837 13.905 14.6641 14.0179C14.7444 14.1309 14.8633 14.2106 14.9984 14.242L18.813 15.074C20.0462 15.3452 21.1504 16.028 21.9439 17.0101C22.7374 17.9923 23.1731 19.2153 23.1791 20.4779C23.1852 21.7406 22.7613 22.9677 21.9772 23.9574C21.1931 24.9471 20.0955 25.6405 18.865 25.9234V26.9783C18.865 27.594 18.6204 28.1844 18.185 28.6198C17.7497 29.0551 17.1592 29.2997 16.5435 29.2997C15.9278 29.2997 15.3374 29.0551 14.902 28.6198C14.4667 28.1844 14.2221 27.594 14.2221 26.9783V25.9272C13.31 25.7164 12.4657 25.2793 11.7672 24.6561C11.0687 24.0328 10.5385 23.2437 10.2255 22.3614C10.0201 21.7807 10.0538 21.1422 10.3192 20.5864C10.5846 20.0305 11.06 19.6028 11.6407 19.3974C12.2214 19.1921 12.8599 19.2258 13.4158 19.4911C13.9716 19.7565 14.3993 20.2319 14.6047 20.8126C14.6681 20.9905 14.7849 21.1444 14.9392 21.2535C15.0934 21.3625 15.2775 21.4212 15.4664 21.4217H17.6244C17.8469 21.4163 18.0598 21.3301 18.2235 21.1793C18.3871 21.0285 18.4904 20.8233 18.514 20.602C18.5377 20.3807 18.4801 20.1583 18.3519 19.9764C18.2238 19.7944 18.0338 19.6652 17.8175 19.6129L14.0067 18.7772C12.8262 18.5199 11.7719 17.8604 11.024 16.9116C10.276 15.9628 9.881 14.7837 9.90645 13.5758C9.9319 12.3679 10.3762 11.2064 11.1635 10.29C11.9507 9.37352 13.0319 8.75907 14.2221 8.55173V7.56373C14.2221 6.27859 15.2621 5.2423 16.5435 5.2423ZM27.8572 31.4763V52.8334H52.0001V49.1192C52.0001 47.149 51.2174 45.2595 49.8243 43.8664C48.4312 42.4732 46.5417 41.6906 44.5715 41.6906H37.143V31.4763C37.143 30.2449 36.6538 29.064 35.7831 28.1933C34.9124 27.3226 33.7315 26.8334 32.5001 26.8334C31.2687 26.8334 30.0878 27.3226 29.2171 28.1933C28.3464 29.064 27.8572 30.2449 27.8572 31.4763Z" fill="url(#paint0_linear_10_5707)"/>
</g>
<defs>
<linearGradient id="paint0_linear_10_5707" x1="26.0577" y1="0.869934" x2="26.0577" y2="52.8334" gradientUnits="userSpaceOnUse">
<stop stop-color="#FDA533"/>
<stop offset="1" stop-color="#FFE8AE"/>
</linearGradient>
<clipPath id="clip0_10_5707">
<rect width="52" height="52" fill="white" transform="translate(0 0.837158)"/>
</clipPath>
</defs>
</svg>
