<svg width="35" height="44" viewBox="0 0 35 44" fill="none" xmlns="http://www.w3.org/2000/svg">
<path d="M35.0002 13.1705L22.0002 0.170502H4.66683C3.51756 0.170502 2.41536 0.627048 1.6027 1.43971C0.790042 2.25236 0.333496 3.35456 0.333496 4.50383V39.1705C0.333496 40.3198 0.790042 41.422 1.6027 42.2346C2.41536 43.0473 3.51756 43.5038 4.66683 43.5038H30.6668C31.8161 43.5038 32.9183 43.0473 33.731 42.2346C34.5436 41.422 35.0002 40.3198 35.0002 39.1705V13.1705ZM11.1668 37.0038H6.8335V17.5038H11.1668V37.0038ZM19.8335 37.0038H15.5002V24.0038H19.8335V37.0038ZM28.5002 37.0038H24.1668V30.5038H28.5002V37.0038ZM22.0002 15.3372H19.8335V4.50383L30.6668 15.3372H22.0002Z" fill="url(#paint0_linear_10_5716)"/>
<defs>
<linearGradient id="paint0_linear_10_5716" x1="17.6668" y1="0.170502" x2="17.6668" y2="43.5038" gradientUnits="userSpaceOnUse">
<stop stop-color="#FDA533"/>
<stop offset="1" stop-color="#FFE8AE"/>
</linearGradient>
</defs>
</svg>
