<svg width="157" height="25" viewBox="0 0 157 25" fill="none" xmlns="http://www.w3.org/2000/svg">
<path d="M2.19625 16.3573V13.1073H7.86813C9.32646 13.1073 10.4515 12.7375 11.2431 11.9979C12.0452 11.2479 12.4463 10.1958 12.4463 8.84167V8.81042C12.4463 7.44584 12.0452 6.39376 11.2431 5.65417C10.4515 4.91459 9.32646 4.5448 7.86813 4.5448H2.19625V1.26355H8.86813C10.389 1.26355 11.7223 1.57605 12.8681 2.20105C14.0244 2.82605 14.9254 3.70626 15.5713 4.84167C16.2171 5.96667 16.54 7.28438 16.54 8.7948V8.82605C16.54 10.326 16.2171 11.6438 15.5713 12.7792C14.9254 13.9042 14.0244 14.7844 12.8681 15.4198C11.7223 16.0448 10.389 16.3573 8.86813 16.3573H2.19625ZM0.180626 23.8104V1.26355H4.21188V23.8104H0.180626ZM21.4944 24.0917C20.4006 24.0917 19.4319 23.8833 18.5881 23.4667C17.7548 23.0396 17.1038 22.451 16.635 21.701C16.1767 20.9406 15.9475 20.0708 15.9475 19.0917V19.0604C15.9475 18.0708 16.1923 17.2271 16.6819 16.5292C17.1819 15.8208 17.9006 15.2635 18.8381 14.8573C19.7756 14.4406 20.911 14.1906 22.2444 14.1073L28.5725 13.7167V16.2948L22.7913 16.6542C21.8329 16.7167 21.0985 16.9458 20.5881 17.3417C20.0777 17.7375 19.8225 18.2635 19.8225 18.9198V18.9354C19.8225 19.6125 20.0777 20.149 20.5881 20.5448C21.109 20.9302 21.7965 21.1229 22.6506 21.1229C23.4006 21.1229 24.0673 20.9719 24.6506 20.6698C25.2444 20.3677 25.7131 19.9563 26.0569 19.4354C26.4006 18.9146 26.5725 18.326 26.5725 17.6698V12.701C26.5725 11.8677 26.3069 11.2115 25.7756 10.7323C25.2548 10.2427 24.4996 9.99792 23.51 9.99792C22.5933 9.99792 21.859 10.1958 21.3069 10.5917C20.7548 10.9771 20.411 11.4771 20.2756 12.0917L20.2444 12.2323H16.6506L16.6663 12.0448C16.7496 11.0656 17.0777 10.1906 17.6506 9.4198C18.2235 8.63855 19.0152 8.02397 20.0256 7.57605C21.0465 7.12813 22.2548 6.90417 23.6506 6.90417C25.036 6.90417 26.234 7.13334 27.2444 7.59167C28.2652 8.05001 29.0517 8.69063 29.6038 9.51355C30.1663 10.3365 30.4475 11.3052 30.4475 12.4198V23.8104H26.5725V21.2635H26.4788C26.1663 21.8365 25.76 22.3365 25.26 22.7635C24.76 23.1906 24.1871 23.5188 23.5413 23.7479C22.9058 23.9771 22.2235 24.0917 21.4944 24.0917ZM38.7925 24.1385C37.3446 24.1385 36.105 23.925 35.0737 23.4979C34.0529 23.0708 33.2508 22.4719 32.6675 21.701C32.0946 20.9198 31.7456 20.0188 31.6206 18.9979L31.605 18.8573H35.4331L35.4644 18.9979C35.6102 19.7167 35.954 20.274 36.4956 20.6698C37.0477 21.0656 37.8185 21.2635 38.8081 21.2635C39.4435 21.2635 39.9852 21.1854 40.4331 21.0292C40.881 20.8729 41.2248 20.6438 41.4644 20.3417C41.7144 20.0396 41.8394 19.6854 41.8394 19.2792V19.2635C41.8394 18.774 41.6727 18.3781 41.3394 18.076C41.006 17.7635 40.4071 17.5083 39.5425 17.3104L36.7925 16.701C35.7404 16.4615 34.8602 16.1333 34.1519 15.7167C33.4435 15.3 32.9123 14.7844 32.5581 14.1698C32.204 13.5448 32.0269 12.8208 32.0269 11.9979V11.9823C32.0269 10.9719 32.3029 10.0865 32.855 9.32605C33.4071 8.56563 34.1831 7.97188 35.1831 7.5448C36.1831 7.11772 37.3446 6.90417 38.6675 6.90417C40.0425 6.90417 41.2196 7.13334 42.1987 7.59167C43.1779 8.05001 43.9331 8.66459 44.4644 9.43542C45.006 10.2063 45.2977 11.0708 45.3394 12.0292L45.355 12.201H41.73L41.7144 12.076C41.631 11.4094 41.329 10.8625 40.8081 10.4354C40.2873 9.99792 39.5737 9.77917 38.6675 9.77917C38.0946 9.77917 37.5946 9.86251 37.1675 10.0292C36.7508 10.1958 36.4279 10.4302 36.1987 10.7323C35.98 11.0344 35.8706 11.3885 35.8706 11.7948V11.8104C35.8706 12.1229 35.9487 12.4042 36.105 12.6542C36.2612 12.9042 36.5112 13.1229 36.855 13.3104C37.1987 13.4875 37.6571 13.6438 38.23 13.7792L40.98 14.3885C42.6987 14.774 43.9227 15.326 44.6519 16.0448C45.381 16.7531 45.7456 17.7063 45.7456 18.9042V18.9198C45.7456 19.9615 45.4487 20.8781 44.855 21.6698C44.2612 22.451 43.4383 23.0604 42.3862 23.4979C41.3446 23.925 40.1467 24.1385 38.7925 24.1385ZM53.0906 24.1385C51.3719 24.1385 50.0906 23.7635 49.2469 23.0135C48.4135 22.2635 47.9969 21.0344 47.9969 19.326V10.2479H45.6531V7.24792H47.9969V3.0448H51.95V7.24792H55.0281V10.2479H51.95V19.0135C51.95 19.8156 52.1271 20.3729 52.4813 20.6854C52.8458 20.9875 53.3771 21.1385 54.075 21.1385C54.2729 21.1385 54.4448 21.1333 54.5906 21.1229C54.7469 21.1021 54.8927 21.0865 55.0281 21.076V23.9979C54.799 24.0292 54.5177 24.0604 54.1844 24.0917C53.8615 24.1229 53.4969 24.1385 53.0906 24.1385ZM56.5294 23.8104V7.24792H60.42V23.8104H56.5294ZM58.4669 4.87292C57.8627 4.87292 57.3523 4.66459 56.9356 4.24792C56.519 3.83126 56.3106 3.33126 56.3106 2.74792C56.3106 2.15417 56.519 1.65417 56.9356 1.24792C57.3523 0.831258 57.8627 0.622925 58.4669 0.622925C59.0815 0.622925 59.5971 0.831258 60.0138 1.24792C60.4304 1.65417 60.6388 2.15417 60.6388 2.74792C60.6388 3.33126 60.4304 3.83126 60.0138 4.24792C59.5971 4.66459 59.0815 4.87292 58.4669 4.87292ZM62.4525 23.8104V7.24792H66.3275V10.1073H66.4212C66.6712 9.1073 67.1244 8.32605 67.7806 7.76355C68.4473 7.19063 69.2598 6.90417 70.2181 6.90417C70.4577 6.90417 70.6869 6.9198 70.9056 6.95105C71.1244 6.9823 71.3067 7.01876 71.4525 7.06042V10.576C71.2962 10.5135 71.0723 10.4615 70.7806 10.4198C70.4994 10.3781 70.1921 10.3573 69.8587 10.3573C69.1296 10.3573 68.4994 10.5083 67.9681 10.8104C67.4369 11.1021 67.0306 11.5344 66.7494 12.1073C66.4681 12.6802 66.3275 13.3781 66.3275 14.201V23.8104H62.4525ZM72.1725 23.8104V7.24792H76.0475V9.90417H76.1413C76.485 8.99792 77.0631 8.27397 77.8756 7.7323C78.6881 7.18022 79.6413 6.90417 80.735 6.90417C81.5058 6.90417 82.1985 7.03959 82.8131 7.31042C83.4277 7.57084 83.9485 7.95105 84.3756 8.45105C84.8131 8.94063 85.1308 9.53959 85.3288 10.2479H85.4069C85.6777 9.56042 86.0631 8.97188 86.5631 8.4823C87.0735 7.9823 87.6673 7.59688 88.3444 7.32605C89.0319 7.0448 89.7715 6.90417 90.5631 6.90417C91.6569 6.90417 92.6048 7.13855 93.4069 7.6073C94.2194 8.06563 94.8496 8.71147 95.2975 9.5448C95.7558 10.3677 95.985 11.3365 95.985 12.451V23.8104H92.0944V13.4042C92.0944 12.7167 91.9798 12.1333 91.7506 11.6542C91.5215 11.175 91.1881 10.8104 90.7506 10.5604C90.3131 10.3104 89.7715 10.1854 89.1256 10.1854C88.5006 10.1854 87.9485 10.3313 87.4694 10.6229C87.0006 10.9042 86.6308 11.3 86.36 11.8104C86.0996 12.3208 85.9694 12.9094 85.9694 13.576V23.8104H82.1881V13.201C82.1881 12.576 82.0683 12.0396 81.8288 11.5917C81.5892 11.1438 81.2506 10.8 80.8131 10.5604C80.3756 10.3104 79.8548 10.1854 79.2506 10.1854C78.6256 10.1854 78.0735 10.3365 77.5944 10.6385C77.1152 10.9406 76.735 11.3521 76.4538 11.8729C76.1829 12.3938 76.0475 12.9927 76.0475 13.6698V23.8104H72.1725ZM102.721 24.0917C101.627 24.0917 100.658 23.8833 99.8144 23.4667C98.981 23.0396 98.33 22.451 97.8613 21.701C97.4029 20.9406 97.1738 20.0708 97.1738 19.0917V19.0604C97.1738 18.0708 97.4185 17.2271 97.9081 16.5292C98.4081 15.8208 99.1269 15.2635 100.064 14.8573C101.002 14.4406 102.137 14.1906 103.471 14.1073L109.799 13.7167V16.2948L104.018 16.6542C103.059 16.7167 102.325 16.9458 101.814 17.3417C101.304 17.7375 101.049 18.2635 101.049 18.9198V18.9354C101.049 19.6125 101.304 20.149 101.814 20.5448C102.335 20.9302 103.023 21.1229 103.877 21.1229C104.627 21.1229 105.294 20.9719 105.877 20.6698C106.471 20.3677 106.939 19.9563 107.283 19.4354C107.627 18.9146 107.799 18.326 107.799 17.6698V12.701C107.799 11.8677 107.533 11.2115 107.002 10.7323C106.481 10.2427 105.726 9.99792 104.736 9.99792C103.82 9.99792 103.085 10.1958 102.533 10.5917C101.981 10.9771 101.637 11.4771 101.502 12.0917L101.471 12.2323H97.8769L97.8925 12.0448C97.9758 11.0656 98.304 10.1906 98.8769 9.4198C99.4498 8.63855 100.241 8.02397 101.252 7.57605C102.273 7.12813 103.481 6.90417 104.877 6.90417C106.262 6.90417 107.46 7.13334 108.471 7.59167C109.491 8.05001 110.278 8.69063 110.83 9.51355C111.393 10.3365 111.674 11.3052 111.674 12.4198V23.8104H107.799V21.2635H107.705C107.393 21.8365 106.986 22.3365 106.486 22.7635C105.986 23.1906 105.413 23.5188 104.768 23.7479C104.132 23.9771 103.45 24.0917 102.721 24.0917ZM119.691 24.1385C117.972 24.1385 116.691 23.7635 115.847 23.0135C115.014 22.2635 114.597 21.0344 114.597 19.326V10.2479H112.253V7.24792H114.597V3.0448H118.55V7.24792H121.628V10.2479H118.55V19.0135C118.55 19.8156 118.727 20.3729 119.081 20.6854C119.446 20.9875 119.977 21.1385 120.675 21.1385C120.873 21.1385 121.045 21.1333 121.191 21.1229C121.347 21.1021 121.493 21.0865 121.628 21.076V23.9979C121.399 24.0292 121.118 24.0604 120.784 24.0917C120.461 24.1229 120.097 24.1385 119.691 24.1385ZM122.692 23.8104V21.451L131.317 10.3104V10.2479H122.77V7.24792H135.754V9.7948L127.473 20.7323V20.8104H135.895V23.8104H122.692ZM137.568 23.8104V7.24792H141.459V23.8104H137.568ZM139.506 4.87292C138.901 4.87292 138.391 4.66459 137.974 4.24792C137.558 3.83126 137.349 3.33126 137.349 2.74792C137.349 2.15417 137.558 1.65417 137.974 1.24792C138.391 0.831258 138.901 0.622925 139.506 0.622925C140.12 0.622925 140.636 0.831258 141.052 1.24792C141.469 1.65417 141.677 2.15417 141.677 2.74792C141.677 3.33126 141.469 3.83126 141.052 4.24792C140.636 4.66459 140.12 4.87292 139.506 4.87292ZM149.96 24.1385C148.512 24.1385 147.272 23.925 146.241 23.4979C145.22 23.0708 144.418 22.4719 143.835 21.701C143.262 20.9198 142.913 20.0188 142.788 18.9979L142.772 18.8573H146.601L146.632 18.9979C146.778 19.7167 147.121 20.274 147.663 20.6698C148.215 21.0656 148.986 21.2635 149.976 21.2635C150.611 21.2635 151.153 21.1854 151.601 21.0292C152.049 20.8729 152.392 20.6438 152.632 20.3417C152.882 20.0396 153.007 19.6854 153.007 19.2792V19.2635C153.007 18.774 152.84 18.3781 152.507 18.076C152.174 17.7635 151.575 17.5083 150.71 17.3104L147.96 16.701C146.908 16.4615 146.028 16.1333 145.319 15.7167C144.611 15.3 144.08 14.7844 143.726 14.1698C143.371 13.5448 143.194 12.8208 143.194 11.9979V11.9823C143.194 10.9719 143.47 10.0865 144.022 9.32605C144.575 8.56563 145.351 7.97188 146.351 7.5448C147.351 7.11772 148.512 6.90417 149.835 6.90417C151.21 6.90417 152.387 7.13334 153.366 7.59167C154.345 8.05001 155.101 8.66459 155.632 9.43542C156.174 10.2063 156.465 11.0708 156.507 12.0292L156.522 12.201H152.897L152.882 12.076C152.799 11.4094 152.496 10.8625 151.976 10.4354C151.455 9.99792 150.741 9.77917 149.835 9.77917C149.262 9.77917 148.762 9.86251 148.335 10.0292C147.918 10.1958 147.595 10.4302 147.366 10.7323C147.147 11.0344 147.038 11.3885 147.038 11.7948V11.8104C147.038 12.1229 147.116 12.4042 147.272 12.6542C147.429 12.9042 147.679 13.1229 148.022 13.3104C148.366 13.4875 148.825 13.6438 149.397 13.7792L152.147 14.3885C153.866 14.774 155.09 15.326 155.819 16.0448C156.549 16.7531 156.913 17.7063 156.913 18.9042V18.9198C156.913 19.9615 156.616 20.8781 156.022 21.6698C155.429 22.451 154.606 23.0604 153.554 23.4979C152.512 23.925 151.314 24.1385 149.96 24.1385Z" fill="url(#paint0_linear_10_5762)"/>
<defs>
<linearGradient id="paint0_linear_10_5762" x1="88.8221" y1="3.47417" x2="88.8221" y2="102.439" gradientUnits="userSpaceOnUse">
<stop stop-color="white"/>
<stop offset="1" stop-color="#999999"/>
</linearGradient>
</defs>
</svg>
